<?xml version="1.0"?><svg xmlns="http://www.w3.org/2000/svg"  viewBox="0 0 50 50" width="50px" height="50px">    <path d="M 25 2 C 12.297 2 2 12.297 2 25 C 2 37.703 12.297 48 25 48 C 37.703 48 48 37.703 48 25 C 48 12.297 37.703 2 25 2 z M 17.664062 16 L 23.839844 16 C 29.178844 16 32.335938 19.331141 32.335938 24.994141 C 32.335938 30.669141 29.190844 34 23.839844 34 L 17.664062 34 L 17.664062 16 z M 19.910156 18.021484 L 19.910156 31.978516 L 23.689453 31.978516 C 27.706453 31.978516 30.039062 29.408578 30.039062 25.017578 C 30.039062 20.614578 27.681453 18.021484 23.689453 18.021484 L 19.910156 18.021484 z"/></svg>